Coordinates
version=1
nRows=14
nColumns=36
inDegrees=yes

Units are S.I. units (second, meters, Newtons, ...)
If the header above contains a line with 'inDegrees', this indicates whether rotational values are in degrees (yes) or radians (no).

endheader
time	pelvis_tilt	pelvis_list	pelvis_rotation	pelvis_tx	pelvis_ty	pelvis_tz	hip_flexion_r	hip_adduction_r	hip_rotation_r	knee_angle_r	knee_angle_r_beta	ankle_angle_r	subtalar_angle_r	mtp_angle_r	hip_flexion_l	hip_adduction_l	hip_rotation_l	knee_angle_l	knee_angle_l_beta	ankle_angle_l	subtalar_angle_l	mtp_angle_l	lumbar_extension	lumbar_bending	lumbar_rotation	arm_flex_r	arm_add_r	arm_rot_r	elbow_flex_r	pro_sup_r	arm_flex_l	arm_add_l	arm_rot_l	elbow_flex_l	pro_sup_l
      5.11666670	     -7.06149303	      1.47124765	     -2.59003381	      0.50931891	      0.95351774	     -0.02553610	     17.43231241	     -5.83646346	     -1.14442775	     21.46193469	      0.37458142	    -12.84837347	    -14.68950555	     -7.49999987	     20.86068852	     -1.67847592	     -5.59438075	     24.14883786	      0.42147673	    -17.85735658	    -14.86381562	     -7.49999987	     -8.69444570	      2.69173547	      3.79655332	     34.32086443	    -22.38503080	      6.73162051	     88.39650479	     95.42174190	   -158.13809648	   -167.11105638	   -159.05979435	    100.84392881	     89.25649559
      5.13333330	     -7.88428707	      1.93595401	     -3.15629173	      0.51180722	      0.90487421	     -0.02200832	     20.83498347	     -5.99049113	      0.20524315	     26.93973414	      0.47018706	     -2.87021584	    -15.63484024	     -7.49999987	     24.34614887	     -2.19218555	     -5.25897340	     30.53897669	      0.53300569	     -8.09510054	    -15.26625564	     -7.49999987	     -8.93968466	      2.19452502	      0.24390297	     43.52449455	    -19.82438570	     10.46507783	     92.31303814	     98.39611050	   -159.64817523	   -166.51478169	   -164.69962853	    112.26730976	     92.53480764
      5.15000000	     -9.32872867	      2.31325168	     -3.97127037	      0.50863048	      0.85225744	     -0.02328775	     26.53287151	     -6.01350311	      1.94711340	     35.75098544	      0.62397241	      8.87794250	    -16.58770740	     -7.49999987	     29.76344952	     -2.89857288	     -4.91721037	     39.61086263	      0.69133997	      4.53670948	    -15.40470139	     -7.49999987	     -8.56587876	      1.63105961	      0.79279232	     50.59056423	    -21.62801258	     10.28891822	     97.44372221	     94.35411672	   -154.75798075	   -166.70779438	   -164.41713020	    119.37035050	     89.62420217
      5.16666670	    -10.96707470	      2.18139656	     -4.82199260	      0.49562850	      0.81437132	     -0.02827101	     34.94810979	     -5.80671542	      2.77802995	     48.16351688	      0.84061195	     20.52538237	    -15.47541699	     -7.49999987	     37.92196241	     -4.25925278	     -4.54665705	     52.55154902	      0.91719756	     17.47204302	    -14.37372247	     -7.49999987	     -9.05827732	      2.11419492	      0.64280509	     56.91514956	    -21.05870826	      9.78765197	    101.99752789	     96.45499452	   -151.11162763	   -168.34924810	   -167.10251290	    125.39200416	     94.24584306
      5.18333330	    -12.49443655	      1.80587761	     -5.42200300	      0.49461146	      0.79026390	     -0.03162842	     43.24009585	     -5.80277178	      3.03577884	     60.65155034	      1.05856925	     30.14027861	    -12.74752394	     -7.49999987	     45.71939880	     -5.30279658	     -3.49727318	     65.02456987	      1.13489284	     28.37278759	    -12.68394931	     -7.49999987	     -9.70682683	      2.90805771	      0.93636766	     58.74373318	    -21.27005933	      7.83599488	    108.38011520	     95.93594500	   -149.62564530	   -170.75401424	   -168.25061489	    130.09309862	     94.67748517
      5.20000000	    -14.10319043	      1.33802000	     -6.07203761	      0.48535857	      0.77152684	     -0.03337875	     51.07757527	     -5.88554256	      2.76197934	     71.20644854	      1.24278698	     36.09762531	     -9.69887378	     -7.49999987	     53.12010033	     -5.85733865	     -2.01213283	     75.56649905	      1.31888421	     35.56991589	    -11.82300146	     -7.49999987	    -11.09745729	      3.70523869	      1.15417963	     59.02216941	    -21.05703158	      6.04666718	    114.93018170	     93.88467337	   -148.79507023	   -172.53229588	   -169.23518307	    133.82268248	     93.43437180
      5.21666670	    -15.82683932	      0.91992997	     -6.32231853	      0.47078427	      0.75571011	     -0.02964137	     57.74790283	     -6.09793980	      2.00104259	     78.56294739	      1.37118210	     39.57079868	     -6.54259461	     -7.49999987	     59.48700644	     -6.16933887	     -0.51790240	     82.66725739	      1.44281582	     39.05136234	    -11.25353350	     -7.49999987	    -13.04524530	      4.01015600	      1.29352894	     59.35013757	    -19.72377607	      5.54231191	    120.20723278	     93.66147776	   -147.80712943	   -173.36159483	   -170.35950493	    136.09111975	     93.72534421
      5.23333330	    -17.55608354	      0.61105759	     -6.30157121	      0.46937514	      0.73873487	     -0.02771946	     62.32974245	     -6.53931600	      0.97255723	     83.06135118	      1.44969406	     41.43051141	     -3.73078732	     -7.49999987	     64.51725626	     -6.42900467	      0.85553160	     87.21582726	      1.52220335	     40.86495838	    -10.12713963	     -7.49999987	    -14.25479368	      4.18812314	      1.01555715	     58.30365130	    -18.32459965	      4.40634094	    124.79891942	     93.41429643	   -146.61677916	   -174.57784217	   -170.66338953	    137.90107206	     94.03503506
      5.25000000	    -19.39879257	      0.65099415	     -6.46024231	      0.45826651	      0.72609807	     -0.02593127	     66.23310435	     -6.71839627	      0.25285624	     85.42343092	      1.49092013	     41.83450079	     -2.11444368	     -7.49999987	     68.51071491	     -6.82869819	      1.72063071	     89.26812459	      1.55802269	     41.83728610	     -8.32212137	     -7.49999987	    -14.73443048	      3.28807223	      1.97643389	     53.86858175	    -17.81769363	      2.00766623	    131.23022304	     92.94831847	   -143.14982753	   -176.04417220	   -168.85979546	    137.47379046	     94.74823820
      5.26666670	    -20.54648253	      0.63365982	     -6.52132480	      0.45902948	      0.72314683	     -0.02543572	     68.15026886	     -6.89780133	     -0.42172252	     86.32938697	      1.50673204	     41.87378069	     -0.47213080	     -7.49999987	     70.34808042	     -7.13018220	      2.27437451	     89.77209465	      1.56681863	     42.11693837	     -6.66357331	     -7.49999987	    -15.70291638	      2.98280107	      1.67785348	     50.79943074	    -15.86332978	      2.31945356	    134.44742855	     92.58501794	   -142.60407815	   -176.41281042	   -168.23996556	    138.31936677	     94.21257946
      5.28333330	    -21.63995908	      0.93419711	     -6.46907182	      0.45372276	      0.72551289	     -0.02858848	     69.30655350	     -7.20990418	     -0.74271501	     85.61364030	      1.49423991	     41.00701243	     -0.29692128	     -7.49999987	     71.58612945	     -7.06976125	      2.10531049	     89.13987810	      1.55578437	     41.18472050	     -6.05005605	     -7.49999987	    -16.70904340	      2.35428265	      1.80589897	     47.18553445	    -14.69529372	      2.79546694	    137.30074112	     93.06733063	   -141.81412374	   -176.96851578	   -165.98611072	    139.06390036	     94.71693452
      5.30000000	    -22.09405552	      1.17031430	     -6.27722361	      0.44156296	      0.72384680	     -0.03084623	     70.10645654	     -7.74579680	     -0.91761609	     84.93798117	      1.48244743	     39.81272699	     -0.05541140	     -7.49999987	     72.44516813	     -6.66292009	      1.95970934	     88.53974097	      1.54531000	     39.84042065	     -6.03995921	     -7.49999987	    -18.35294194	      2.02864163	      2.14706942	     44.52739261	    -13.44520697	      4.21185328	    139.11870018	     93.48689225	   -139.97204692	   -177.43309934	   -164.56430578	    138.99755349	     94.95848746
      5.31666670	    -22.44497163	      1.21096865	     -5.94616824	      0.43699767	      0.72163961	     -0.03442124	     70.85361220	     -8.32972957	     -1.05633633	     84.50060244	      1.47481373	     39.16443475	      0.28768255	     -7.49999987	     73.36384336	     -6.26131674	      1.84840659	     88.22705890	      1.53985267	     38.67322916	     -6.13844449	     -7.49999987	    -19.82437406	      1.54781602	      3.13911844	     41.45636599	    -14.05749414	      2.51446696	    140.72221020	     94.02560300	   -137.82213312	   -178.93133474	   -161.05489585	    137.58152965	     94.54542473
      5.33333330	    -22.89892926	      1.14185346	     -5.68181672	      0.43402842	      0.71773419	     -0.03601016	     71.66425225	     -8.90694016	     -1.30250402	     84.17874136	      1.46919620	     38.60100927	      0.74880372	     -7.49999987	     74.42133066	     -5.92410110	      1.95512308	     88.08039348	      1.53729287	     37.92954023	     -6.24880157	     -7.49999987	    -20.71677701	      1.93554969	      2.67424042	     41.63632300	    -13.48736881	      4.19144047	    141.09531709	     96.60900070	   -137.19716012	   -178.89493078	   -159.95462132	    138.43737753	     97.09625998
